<svg width="24" height="25" viewBox="0 0 24 25" fill="none" xmlns="http://www.w3.org/2000/svg">
<path d="M22.7016 2.22175L10.7116 2.21875L10.7216 22.2528H1V23.0127H22.7016V2.22175ZM13.0716 4.22175H16.4916L16.5016 7.01575L13.0766 7.02575L13.0716 4.22175ZM17.1416 4.22175H20.5216L20.5356 7.01175H17.1426L17.1416 4.22175ZM13.2816 4.41175V6.85175H16.2816V4.41175H13.2816ZM17.3316 4.41175V6.85175H20.3316V4.41175H17.3316ZM13.6816 4.75175H15.8816V6.49175H13.6816V4.75175ZM17.7316 4.75175H19.9416V6.49175H17.7316V4.75175ZM13.9016 4.91175V6.30175H15.6616V4.91175H13.9016ZM17.9516 4.91175V6.31175H19.7116V4.91175H17.9516ZM13.0716 7.93175H16.4916V13.3717H13.0716V7.93175ZM17.1416 7.93175H20.5216V13.3717H17.1416V7.93175ZM13.2816 8.19175V13.1517H16.2816V8.19175H13.2816ZM17.3316 8.19175V13.1517H20.3316V8.19175H17.3316ZM13.6816 8.66175H15.8816V12.6917H13.6816V8.66175ZM17.7316 8.66175H19.9416V12.6917H17.7316V8.66175ZM13.9016 8.92175V12.4618H15.6616V8.92175H13.9016ZM17.9616 8.92175V12.4618H19.7216V8.92175H17.9616ZM13.0716 14.3418H16.4916V20.4217H13.0716V14.3418ZM17.1416 14.3418H20.5216V20.4217H17.1416V14.3418ZM13.3516 14.5717V20.2018H16.2516V14.5717H13.3516ZM17.3516 14.5717V20.2018H20.2516V14.5717H17.3516ZM13.5916 14.7817H15.9316V19.9618H13.5916V14.7817ZM17.6716 14.7817H19.9716V19.9618H17.7016L17.6716 14.7817ZM13.9016 14.9917V19.7718H15.6916V14.9917H13.9016ZM17.9016 14.9917V19.7718H19.7216V14.9917H17.9016Z" fill="black"/>
<g clip-path="url(#clip0_1322_9082)">
<path d="M1.94222 13.9709H8.05333L7.63556 13.5265H2.30222L1.94222 13.9709ZM8.79556 14.0731C8.92444 14.2243 9 14.4154 9 14.6376V20.1931C9 20.4289 8.90635 20.655 8.73965 20.8217C8.57295 20.9884 8.34686 21.082 8.11111 21.082H1.88889C1.65314 21.082 1.42705 20.9884 1.26035 20.8217C1.09365 20.655 1 20.4289 1 20.1931V14.6376C1 14.4154 1.07556 14.2243 1.20444 14.0731L1.81778 13.3265C1.94222 13.1754 2.12444 13.082 2.33333 13.082H7.66667C7.87556 13.082 8.05778 13.1754 8.17778 13.3265L8.79556 14.0731ZM2.33333 19.7487H5V18.4154H2.33333V19.7487Z" fill="black"/>
</g>
<defs>
<clipPath id="clip0_1322_9082">
<rect width="8" height="8" fill="white" transform="translate(1 13.082)"/>
</clipPath>
</defs>
</svg>
