<svg width="210" height="106" viewBox="0 0 210 106" fill="none" xmlns="http://www.w3.org/2000/svg">
<path d="M47.2199 58.0249C62.1385 58.0249 74.2324 45.931 74.2324 31.0124C74.2324 16.0939 62.1385 4 47.2199 4C32.3014 4 20.2075 16.0939 20.2075 31.0124C20.2075 45.931 32.3014 58.0249 47.2199 58.0249ZM47.2199 58.0249C58.6826 58.0249 69.6757 62.5784 77.781 70.6837C85.8863 78.789 90.4398 89.7822 90.4398 101.245H4C4 89.7822 8.55352 78.789 16.6588 70.6837C24.7641 62.5784 35.7573 58.0249 47.2199 58.0249Z" stroke="black" stroke-opacity="0.05" stroke-width="8" stroke-linecap="round" stroke-linejoin="round"/>
<rect x="128.256" y="9.40332" width="81.0373" height="16.2075" fill="black" fill-opacity="0.05"/>
<rect x="128.256" y="47.2202" width="81.0373" height="16.2075" fill="black" fill-opacity="0.05"/>
<rect x="128.256" y="85.0391" width="64.8299" height="16.2075" fill="black" fill-opacity="0.05"/>
</svg>
