<svg width="20" height="20" viewBox="0 0 20 20" fill="none" xmlns="http://www.w3.org/2000/svg">
<mask id="path-1-inside-1_10932_39861" fill="white">
<path d="M17.207 14.4448C17.6367 14.6337 18.0208 14.8698 18.3594 15.1531C18.6979 15.4365 18.9909 15.7552 19.2383 16.1094C19.4857 16.4635 19.6745 16.8413 19.8047 17.2427C19.9349 17.6441 20 18.0632 20 18.5H18.75C18.75 18.0337 18.6523 17.5939 18.457 17.1807C18.2617 16.7675 17.9915 16.4075 17.6465 16.1005C17.3014 15.7936 16.9043 15.5516 16.4551 15.3745C16.0059 15.1974 15.5208 15.1059 15 15.1C14.4857 15.1 14.0007 15.1885 13.5449 15.3656C13.0892 15.5427 12.6921 15.7877 12.3535 16.1005C12.015 16.4134 11.748 16.7734 11.5527 17.1807C11.3574 17.588 11.2565 18.0278 11.25 18.5H10C10 18.0691 10.0651 17.653 10.1953 17.2516C10.3255 16.8502 10.5111 16.4724 10.752 16.1182C10.9928 15.7641 11.2858 15.4453 11.6309 15.162C11.9759 14.8786 12.3633 14.6396 12.793 14.4448C12.3047 14.126 11.9271 13.7276 11.6602 13.2495C11.3932 12.7714 11.2565 12.2549 11.25 11.7C11.25 11.2337 11.3477 10.7939 11.543 10.3807C11.7383 9.96754 12.0052 9.60746 12.3438 9.30052C12.6823 8.99358 13.0794 8.74861 13.5352 8.56562C13.9909 8.38264 14.4792 8.2941 15 8.3C15.5143 8.3 15.9993 8.38854 16.4551 8.56562C16.9108 8.74271 17.3079 8.98472 17.6465 9.29167C17.985 9.59861 18.2552 9.96163 18.457 10.3807C18.6589 10.7998 18.7565 11.2396 18.75 11.7C18.75 12.249 18.6165 12.7625 18.3496 13.2406C18.0827 13.7188 17.7018 14.1201 17.207 14.4448ZM15 13.9667C15.3451 13.9667 15.6673 13.9076 15.9668 13.7896C16.2663 13.6715 16.5332 13.5092 16.7676 13.3026C17.002 13.096 17.181 12.8569 17.3047 12.5854C17.4284 12.3139 17.4935 12.0188 17.5 11.7C17.5 11.3872 17.4349 11.095 17.3047 10.8234C17.1745 10.5519 16.9954 10.3099 16.7676 10.0974C16.5397 9.8849 16.276 9.72257 15.9766 9.61042C15.6771 9.49826 15.3516 9.43924 15 9.43333C14.6549 9.43333 14.3327 9.49236 14.0332 9.61042C13.7337 9.72847 13.4668 9.8908 13.2324 10.0974C12.998 10.304 12.819 10.5431 12.6953 10.8146C12.5716 11.0861 12.5065 11.3813 12.5 11.7C12.5 12.0128 12.5651 12.305 12.6953 12.5766C12.8255 12.8481 13.0046 13.0901 13.2324 13.3026C13.4603 13.5151 13.724 13.6774 14.0234 13.7896C14.3229 13.9017 14.6484 13.9608 15 13.9667ZM20 1.5V10.5667C20 10.2833 19.9707 10.0354 19.9121 9.82292C19.8535 9.61042 19.7721 9.41267 19.668 9.22969C19.5638 9.0467 19.4336 8.86962 19.2773 8.69844C19.1211 8.52726 18.9453 8.34132 18.75 8.14062V2.63333H1.25V12.8333H3.75V15.1974L6.35742 12.8333H10.166C10.2181 13.034 10.2865 13.2288 10.3711 13.4177C10.4557 13.6066 10.5566 13.7896 10.6738 13.9667H6.875L2.5 17.9333V13.9667H0V1.5H20Z"/>
</mask>
<path d="M17.207 14.4448C17.6367 14.6337 18.0208 14.8698 18.3594 15.1531C18.6979 15.4365 18.9909 15.7552 19.2383 16.1094C19.4857 16.4635 19.6745 16.8413 19.8047 17.2427C19.9349 17.6441 20 18.0632 20 18.5H18.75C18.75 18.0337 18.6523 17.5939 18.457 17.1807C18.2617 16.7675 17.9915 16.4075 17.6465 16.1005C17.3014 15.7936 16.9043 15.5516 16.4551 15.3745C16.0059 15.1974 15.5208 15.1059 15 15.1C14.4857 15.1 14.0007 15.1885 13.5449 15.3656C13.0892 15.5427 12.6921 15.7877 12.3535 16.1005C12.015 16.4134 11.748 16.7734 11.5527 17.1807C11.3574 17.588 11.2565 18.0278 11.25 18.5H10C10 18.0691 10.0651 17.653 10.1953 17.2516C10.3255 16.8502 10.5111 16.4724 10.752 16.1182C10.9928 15.7641 11.2858 15.4453 11.6309 15.162C11.9759 14.8786 12.3633 14.6396 12.793 14.4448C12.3047 14.126 11.9271 13.7276 11.6602 13.2495C11.3932 12.7714 11.2565 12.2549 11.25 11.7C11.25 11.2337 11.3477 10.7939 11.543 10.3807C11.7383 9.96754 12.0052 9.60746 12.3438 9.30052C12.6823 8.99358 13.0794 8.74861 13.5352 8.56562C13.9909 8.38264 14.4792 8.2941 15 8.3C15.5143 8.3 15.9993 8.38854 16.4551 8.56562C16.9108 8.74271 17.3079 8.98472 17.6465 9.29167C17.985 9.59861 18.2552 9.96163 18.457 10.3807C18.6589 10.7998 18.7565 11.2396 18.75 11.7C18.75 12.249 18.6165 12.7625 18.3496 13.2406C18.0827 13.7188 17.7018 14.1201 17.207 14.4448ZM15 13.9667C15.3451 13.9667 15.6673 13.9076 15.9668 13.7896C16.2663 13.6715 16.5332 13.5092 16.7676 13.3026C17.002 13.096 17.181 12.8569 17.3047 12.5854C17.4284 12.3139 17.4935 12.0188 17.5 11.7C17.5 11.3872 17.4349 11.095 17.3047 10.8234C17.1745 10.5519 16.9954 10.3099 16.7676 10.0974C16.5397 9.8849 16.276 9.72257 15.9766 9.61042C15.6771 9.49826 15.3516 9.43924 15 9.43333C14.6549 9.43333 14.3327 9.49236 14.0332 9.61042C13.7337 9.72847 13.4668 9.8908 13.2324 10.0974C12.998 10.304 12.819 10.5431 12.6953 10.8146C12.5716 11.0861 12.5065 11.3813 12.5 11.7C12.5 12.0128 12.5651 12.305 12.6953 12.5766C12.8255 12.8481 13.0046 13.0901 13.2324 13.3026C13.4603 13.5151 13.724 13.6774 14.0234 13.7896C14.3229 13.9017 14.6484 13.9608 15 13.9667ZM20 1.5V10.5667C20 10.2833 19.9707 10.0354 19.9121 9.82292C19.8535 9.61042 19.7721 9.41267 19.668 9.22969C19.5638 9.0467 19.4336 8.86962 19.2773 8.69844C19.1211 8.52726 18.9453 8.34132 18.75 8.14062V2.63333H1.25V12.8333H3.75V15.1974L6.35742 12.8333H10.166C10.2181 13.034 10.2865 13.2288 10.3711 13.4177C10.4557 13.6066 10.5566 13.7896 10.6738 13.9667H6.875L2.5 17.9333V13.9667H0V1.5H20Z" fill="black"/>
<path d="M17.207 14.4448L16.1098 12.7726L13.0301 14.7933L16.4022 16.2757L17.207 14.4448ZM20 18.5V20.5H22V18.5H20ZM18.75 18.5H16.75V20.5H18.75V18.5ZM15 15.1L15.0227 13.1001L15.0113 13.1H15V15.1ZM11.25 18.5V20.5H13.2226L13.2498 18.5276L11.25 18.5ZM10 18.5H8V20.5H10V18.5ZM12.793 14.4448L13.6187 16.2664L16.9374 14.7619L13.8862 12.7701L12.793 14.4448ZM11.25 11.7H9.25V11.7117L9.25014 11.7235L11.25 11.7ZM15 8.3L14.9773 10.2999L14.9887 10.3H15V8.3ZM18.75 11.7L16.7502 11.6717L16.75 11.6859V11.7H18.75ZM15 13.9667L14.9664 15.9664L14.9832 15.9667H15V13.9667ZM17.5 11.7L19.4996 11.7408L19.5 11.7204V11.7H17.5ZM15.9766 9.61042L16.678 7.73745L15.9766 9.61042ZM15 9.43333L15.0336 7.43362L15.0168 7.43333H15V9.43333ZM14.0332 9.61042L14.7667 11.4711L14.0332 9.61042ZM12.5 11.7L10.5004 11.6592L10.5 11.6796V11.7H12.5ZM20 1.5H22V-0.5H20V1.5ZM18.75 8.14062H16.75V8.95318L17.3167 9.53549L18.75 8.14062ZM18.75 2.63333H20.75V0.633333H18.75V2.63333ZM1.25 2.63333V0.633333H-0.75V2.63333H1.25ZM1.25 12.8333H-0.75V14.8333H1.25V12.8333ZM3.75 12.8333H5.75V10.8333H3.75V12.8333ZM3.75 15.1974H1.75V19.7104L5.09338 16.6791L3.75 15.1974ZM6.35742 12.8333V10.8333H5.58574L5.01404 11.3517L6.35742 12.8333ZM10.166 12.8333L12.1019 12.3309L11.7132 10.8333H10.166V12.8333ZM10.6738 13.9667V15.9667H14.3956L12.3417 12.8629L10.6738 13.9667ZM6.875 13.9667V11.9667H6.10331L5.53162 12.485L6.875 13.9667ZM2.5 17.9333H0.5V22.4463L3.84338 19.415L2.5 17.9333ZM2.5 13.9667H4.5V11.9667H2.5V13.9667ZM0 13.9667H-2V15.9667H0V13.9667ZM0 1.5V-0.5H-2V1.5H0ZM16.4022 16.2757C16.67 16.3934 16.8908 16.5321 17.0758 16.6869L19.643 13.6194C19.1508 13.2075 18.6035 12.8739 18.0119 12.6139L16.4022 16.2757ZM17.0758 16.6869C17.282 16.8595 17.4545 17.0483 17.5987 17.2547L20.8779 14.9641C20.5273 14.4621 20.1138 14.0134 19.643 13.6194L17.0758 16.6869ZM17.5987 17.2547C17.7356 17.4506 17.8345 17.651 17.9023 17.8598L21.7071 16.6256C21.5144 16.0316 21.2358 15.4764 20.8779 14.9641L17.5987 17.2547ZM17.9023 17.8598C17.9656 18.055 18 18.2653 18 18.5H22C22 17.8611 21.9042 17.2332 21.7071 16.6256L17.9023 17.8598ZM20 16.5H18.75V20.5H20V16.5ZM20.75 18.5C20.75 17.7443 20.5895 17.012 20.2652 16.326L16.6489 18.0354C16.7152 18.1758 16.75 18.3231 16.75 18.5H20.75ZM20.2652 16.326C19.9537 15.667 19.5197 15.09 18.9758 14.6062L16.3172 17.5948C16.4634 17.7249 16.5698 17.8681 16.6489 18.0354L20.2652 16.326ZM18.9758 14.6062C18.4473 14.1361 17.8463 13.7731 17.1886 13.5138L15.7216 17.2351C15.9623 17.33 16.1556 17.4511 16.3172 17.5948L18.9758 14.6062ZM17.1886 13.5138C16.4956 13.2407 15.7677 13.1086 15.0227 13.1001L14.9773 17.0999C15.274 17.1032 15.5161 17.1541 15.7216 17.2351L17.1886 13.5138ZM15 13.1C14.2509 13.1 13.5191 13.23 12.8205 13.5014L14.2693 17.2298C14.4822 17.1471 14.7204 17.1 15 17.1V13.1ZM12.8205 13.5014C12.1452 13.7638 11.53 14.1383 10.9961 14.6317L13.7109 17.5694C13.8541 17.437 14.0332 17.3216 14.2693 17.2298L12.8205 13.5014ZM10.9961 14.6317C10.476 15.1123 10.0561 15.6762 9.74936 16.3159L13.3561 18.0455C13.44 17.8707 13.5539 17.7144 13.7109 17.5694L10.9961 14.6317ZM9.74936 16.3159C9.42292 16.9967 9.26051 17.7237 9.25019 18.4724L13.2498 18.5276C13.2525 18.3318 13.2919 18.1794 13.3561 18.0455L9.74936 16.3159ZM11.25 16.5H10V20.5H11.25V16.5ZM12 18.5C12 18.2742 12.0335 18.0665 12.0977 17.8687L8.29291 16.6344C8.09667 17.2394 8 17.864 8 18.5H12ZM12.0977 17.8687C12.1686 17.6502 12.2697 17.443 12.4057 17.243L9.09821 14.9934C8.75244 15.5018 8.48243 16.0502 8.29291 16.6344L12.0977 17.8687ZM12.4057 17.243C12.5347 17.0534 12.6963 16.8749 12.9001 16.7077L10.3617 13.6163C9.87527 14.0157 9.451 14.4747 9.09821 14.9934L12.4057 17.243ZM12.9001 16.7077C13.1026 16.5414 13.3393 16.393 13.6187 16.2664L11.9672 12.6232C11.3873 12.8861 10.8493 13.2159 10.3617 13.6163L12.9001 16.7077ZM13.8862 12.7701C13.651 12.6165 13.5054 12.4517 13.4064 12.2746L9.91386 14.2244C10.3488 15.0035 10.9584 15.6356 11.6997 16.1195L13.8862 12.7701ZM13.4064 12.2746C13.3043 12.0915 13.2525 11.9027 13.2499 11.6765L9.25014 11.7235C9.2605 12.607 9.48219 13.4512 9.91386 14.2244L13.4064 12.2746ZM13.25 11.7C13.25 11.5231 13.2848 11.3758 13.3511 11.2354L9.7348 9.52603C9.41055 10.212 9.25 10.9443 9.25 11.7H13.25ZM13.3511 11.2354C13.4342 11.0597 13.5432 10.9127 13.6871 10.7822L11.0004 7.81885C10.4672 8.30226 10.0424 8.87538 9.7348 9.52603L13.3511 11.2354ZM13.6871 10.7822C13.8373 10.646 14.0281 10.5229 14.2804 10.4216L12.7899 6.70965C12.1307 6.97434 11.5273 7.34115 11.0004 7.81885L13.6871 10.7822ZM14.2804 10.4216C14.4775 10.3424 14.7033 10.2968 14.9773 10.2999L15.0227 6.30013C14.2551 6.29143 13.5042 6.42284 12.7899 6.70965L14.2804 10.4216ZM15 10.3C15.2796 10.3 15.5178 10.3471 15.7307 10.4298L17.1795 6.70142C16.4809 6.42998 15.7491 6.3 15 6.3V10.3ZM15.7307 10.4298C15.9745 10.5246 16.1581 10.6419 16.3031 10.7733L18.9899 7.81C18.4578 7.32757 17.8471 6.96085 17.1795 6.70142L15.7307 10.4298ZM16.3031 10.7733C16.4472 10.904 16.5631 11.0574 16.6551 11.2485L20.259 9.51297C19.9473 8.86586 19.5229 8.29326 18.9899 7.81L16.3031 10.7733ZM16.6551 11.2485C16.7238 11.3912 16.7523 11.5245 16.7502 11.6717L20.7498 11.7283C20.7607 10.9546 20.5939 10.2084 20.259 9.51297L16.6551 11.2485ZM16.75 11.7C16.75 11.9086 16.7034 12.0864 16.6033 12.2657L20.0959 14.2155C20.5296 13.4386 20.75 12.5894 20.75 11.7H16.75ZM16.6033 12.2657C16.5059 12.4402 16.3575 12.6101 16.1098 12.7726L18.3042 16.117C19.0461 15.6302 19.6594 14.9973 20.0959 14.2155L16.6033 12.2657ZM15 15.9667C15.5779 15.9667 16.1509 15.8668 16.7003 15.6502L15.2333 11.9289C15.1838 11.9485 15.1122 11.9667 15 11.9667V15.9667ZM16.7003 15.6502C17.2089 15.4497 17.6765 15.1675 18.0901 14.8029L15.4451 11.8023C15.3899 11.8509 15.3237 11.8933 15.2333 11.9289L16.7003 15.6502ZM18.0901 14.8029C18.5255 14.4191 18.8788 13.9544 19.1247 13.4146L15.4847 11.7563C15.4832 11.7595 15.4784 11.7729 15.4451 11.8023L18.0901 14.8029ZM19.1247 13.4146C19.3689 12.8786 19.4879 12.3129 19.4996 11.7408L15.5004 11.6592C15.4991 11.7246 15.4879 11.7492 15.4847 11.7563L19.1247 13.4146ZM19.5 11.7C19.5 11.0998 19.3728 10.5107 19.1081 9.95865L15.5013 11.6882C15.5014 11.6884 15.501 11.6875 15.5004 11.6857C15.4997 11.6839 15.4993 11.6823 15.499 11.6812C15.4988 11.6801 15.499 11.6807 15.4993 11.6832C15.4996 11.6858 15.5 11.6913 15.5 11.7H19.5ZM19.1081 9.95865C18.8662 9.45437 18.5355 9.01137 18.1316 8.63473L15.4035 11.5601C15.4554 11.6084 15.4827 11.6494 15.5013 11.6882L19.1081 9.95865ZM18.1316 8.63473C17.7068 8.23857 17.2165 7.93911 16.678 7.73745L15.2751 11.4834C15.3356 11.506 15.3726 11.5312 15.4035 11.5601L18.1316 8.63473ZM16.678 7.73745C16.1445 7.53767 15.5907 7.44297 15.0336 7.43362L14.9664 11.4331C15.1124 11.4355 15.2096 11.4589 15.2751 11.4834L16.678 7.73745ZM15 7.43333C14.4221 7.43333 13.8491 7.53319 13.2997 7.74977L14.7667 11.4711C14.8162 11.4515 14.8878 11.4333 15 11.4333V7.43333ZM13.2997 7.74977C12.7911 7.95025 12.3235 8.23247 11.9099 8.59707L14.5549 11.5977C14.6101 11.5491 14.6763 11.5067 14.7667 11.4711L13.2997 7.74977ZM11.9099 8.59707C11.4745 8.98091 11.1212 9.4456 10.8753 9.98544L14.5153 11.6437C14.5168 11.6405 14.5216 11.6271 14.5549 11.5977L11.9099 8.59707ZM10.8753 9.98544C10.6311 10.5214 10.5121 11.0871 10.5004 11.6592L14.4996 11.7408C14.5009 11.6754 14.5121 11.6508 14.5153 11.6437L10.8753 9.98544ZM10.5 11.7C10.5 12.3002 10.6272 12.8893 10.8919 13.4413L14.4987 11.7118C14.4986 11.7116 14.499 11.7125 14.4996 11.7143C14.5003 11.7161 14.5007 11.7177 14.501 11.7188C14.5012 11.7199 14.501 11.7193 14.5007 11.7168C14.5004 11.7142 14.5 11.7087 14.5 11.7H10.5ZM10.8919 13.4413C11.1338 13.9456 11.4645 14.3886 11.8684 14.7653L14.5965 11.8399C14.5446 11.7916 14.5173 11.7506 14.4987 11.7118L10.8919 13.4413ZM11.8684 14.7653C12.2932 15.1614 12.7835 15.4609 13.322 15.6626L14.7249 11.9166C14.6644 11.894 14.6274 11.8688 14.5965 11.8399L11.8684 14.7653ZM13.322 15.6626C13.8555 15.8623 14.4093 15.957 14.9664 15.9664L15.0336 11.9669C14.8876 11.9645 14.7904 11.9411 14.7249 11.9166L13.322 15.6626ZM18 1.5V10.5667H22V1.5H18ZM22 10.5667C22 10.152 21.9578 9.71806 21.8402 9.29129L17.9841 10.3545C17.9836 10.3528 18 10.4147 18 10.5667H22ZM21.8402 9.29129C21.7395 8.92639 21.5961 8.57398 21.4061 8.24025L17.9299 10.2191C17.9482 10.2514 17.9675 10.2944 17.9841 10.3545L21.8402 9.29129ZM21.4061 8.24025C21.2216 7.91615 21.0009 7.62001 20.7545 7.35011L17.8002 10.0468C17.8663 10.1192 17.906 10.1773 17.9299 10.2191L21.4061 8.24025ZM20.7545 7.35011C20.5813 7.16035 20.3905 6.95871 20.1833 6.74576L17.3167 9.53549C17.5001 9.72392 17.6609 9.89416 17.8002 10.0468L20.7545 7.35011ZM20.75 8.14062V2.63333H16.75V8.14062H20.75ZM18.75 0.633333H1.25V4.63333H18.75V0.633333ZM-0.75 2.63333V12.8333H3.25V2.63333H-0.75ZM1.25 14.8333H3.75V10.8333H1.25V14.8333ZM1.75 12.8333V15.1974H5.75V12.8333H1.75ZM5.09338 16.6791L7.7008 14.315L5.01404 11.3517L2.40662 13.7157L5.09338 16.6791ZM6.35742 14.8333H10.166V10.8333H6.35742V14.8333ZM8.23014 13.3357C8.31021 13.6443 8.41558 13.9446 8.54593 14.2355L12.1963 12.5999C12.1573 12.5131 12.126 12.4238 12.1019 12.3309L8.23014 13.3357ZM8.54593 14.2355C8.67626 14.5264 8.8302 14.8048 9.00596 15.0704L12.3417 12.8629C12.2831 12.7744 12.2352 12.6868 12.1963 12.5999L8.54593 14.2355ZM10.6738 11.9667H6.875V15.9667H10.6738V11.9667ZM5.53162 12.485L1.15662 16.4517L3.84338 19.415L8.21838 15.4483L5.53162 12.485ZM4.5 17.9333V13.9667H0.5V17.9333H4.5ZM2.5 11.9667H0V15.9667H2.5V11.9667ZM2 13.9667V1.5H-2V13.9667H2ZM0 3.5H20V-0.5H0V3.5Z" fill="black" mask="url(#path-1-inside-1_10932_39861)"/>
</svg>
