<svg width="64" height="64" viewBox="0 0 64 64" fill="none" xmlns="http://www.w3.org/2000/svg">
<path d="M25.333 44.0026L43.9997 32.0026L25.333 20.0026V44.0026ZM31.9997 58.6693C28.3108 58.6693 24.8441 57.9688 21.5997 56.5679C18.3552 55.167 15.533 53.2675 13.133 50.8693C10.733 48.4693 8.83345 45.647 7.43434 42.4026C6.03523 39.1582 5.33479 35.6915 5.33301 32.0026C5.33301 28.3137 6.03345 24.847 7.43434 21.6026C8.83523 18.3582 10.7348 15.5359 13.133 13.1359C15.533 10.7359 18.3552 8.83638 21.5997 7.43727C24.8441 6.03816 28.3108 5.33772 31.9997 5.33594C35.6886 5.33594 39.1552 6.03638 42.3997 7.43727C45.6441 8.83816 48.4663 10.7377 50.8663 13.1359C53.2663 15.5359 55.1668 18.3582 56.5677 21.6026C57.9686 24.847 58.6681 28.3137 58.6663 32.0026C58.6663 35.6915 57.9659 39.1582 56.565 42.4026C55.1641 45.647 53.2646 48.4693 50.8663 50.8693C48.4663 53.2693 45.6441 55.1697 42.3997 56.5706C39.1552 57.9715 35.6886 58.6711 31.9997 58.6693Z" fill="#379465"/>
</svg>
